<?xml version="1.0" standalone="no"?>
<!DOCTYPE svg PUBLIC "-//W3C//DTD SVG 20010904//EN"
 "http://www.w3.org/TR/2001/REC-SVG-20010904/DTD/svg10.dtd">
<svg version="1.0" xmlns="http://www.w3.org/2000/svg"
 width="336.000000pt" height="336.000000pt" viewBox="0 0 336.000000 336.000000"
 preserveAspectRatio="xMidYMid meet">
<metadata>
Created by potrace 1.14, written by Peter Selinger 2001-2017
</metadata>
<g transform="translate(0.000000,336.000000) scale(0.100000,-0.100000)"
fill="#000000" stroke="none">
<path d="M251 1606 l-94 -94 49 -7 c264 -36 539 -124 784 -252 224 -117 352
-209 536 -385 130 -125 132 -124 29 12 -227 300 -549 555 -888 703 -78 34
-305 117 -320 117 -1 0 -45 -42 -96 -94z"/>
<path d="M2895 1661 c-443 -153 -811 -416 -1087 -778 -103 -136 -104 -140 -2
-42 210 203 326 287 564 412 245 128 520 216 784 252 l49 7 -94 94 c-51 52
-96 94 -99 94 -3 -1 -54 -18 -115 -39z"/>
<path d="M186 1271 l-98 -98 199 -6 c294 -8 552 -57 812 -153 130 -49 337
-150 444 -217 48 -31 87 -54 87 -52 0 11 -221 181 -329 252 -126 84 -351 201
-473 247 -147 54 -443 126 -522 126 -14 0 -58 -36 -120 -99z"/>
<path d="M2985 1363 c-78 -11 -270 -59 -379 -95 -241 -79 -538 -246 -768 -431
-106 -85 -137 -117 -67 -70 363 244 826 387 1302 400 l199 6 -98 98 c-104 105
-102 104 -189 92z"/>
</g>
</svg>
